<?xml version="1.0" standalone="no"?>
<!DOCTYPE svg PUBLIC "-//W3C//DTD SVG 20010904//EN"
 "http://www.w3.org/TR/2001/REC-SVG-20010904/DTD/svg10.dtd">
<svg version="1.0" xmlns="http://www.w3.org/2000/svg"
 width="256.000000pt" height="256.000000pt" viewBox="0 0 256.000000 256.000000"
 preserveAspectRatio="xMidYMid meet">
<metadata>
Created by potrace 1.11, written by Peter Selinger 2001-2013
</metadata>
<g transform="translate(0.000000,256.000000) scale(0.100000,-0.100000)"
fill="#000000" stroke="none">
<path d="M1140 2330 c-25 -5 -61 -11 -80 -14 -106 -19 -261 -85 -368 -156
-237 -158 -407 -419 -458 -700 -9 -53 -12 -258 -4 -315 43 -296 185 -538 422
-716 193 -143 406 -210 658 -204 285 6 553 126 745 334 118 128 215 305 250
456 4 17 7 32 8 35 23 95 31 332 14 406 -50 212 -96 316 -199 455 -161 218
-415 374 -673 414 -66 10 -267 13 -315 5z"/>
</g>
</svg>
